<svg width="365" height="702" viewBox="0 0 365 702" fill="none" xmlns="http://www.w3.org/2000/svg">
<g clip-path="url(#clip0)" filter="url(#filter0_d)">
<path d="M321.884 590.961C294.815 653.785 253.817 702.041 215.973 696.578C177.866 690.66 142.649 631.478 104.542 588.229C66.1722 545.436 24.9113 518.577 10.9825 469.41C-2.94632 420.244 10.4569 348.315 20.7064 263.639C30.9559 178.963 38.0518 81.0854 69.3259 36.4712C100.337 -8.59813 156.053 0.0515537 202.044 29.1873C248.035 58.3231 284.566 108.4 311.898 168.948C339.23 229.04 357.363 300.514 359.729 375.174C362.094 449.835 348.954 527.682 321.884 590.961Z" fill="#171717"/>
</g>
<defs>
<filter id="filter0_d" x="0" y="0" width="365" height="702" filterUnits="userSpaceOnUse" color-interpolation-filters="sRGB">
<feFlood flood-opacity="0" result="BackgroundImageFix"/>
<feColorMatrix in="SourceAlpha" type="matrix" values="0 0 0 0 0 0 0 0 0 0 0 0 0 0 0 0 0 0 127 0"/>
<feOffset/>
<feGaussianBlur stdDeviation="2.5"/>
<feColorMatrix type="matrix" values="0 0 0 0 0 0 0 0 0 0 0 0 0 0 0 0 0 0 0.25 0"/>
<feBlend mode="normal" in2="BackgroundImageFix" result="effect1_dropShadow"/>
<feBlend mode="normal" in="SourceGraphic" in2="effect1_dropShadow" result="shape"/>
</filter>
<clipPath id="clip0">
<rect width="692" height="355" fill="white" transform="translate(360 5) rotate(90)"/>
</clipPath>
</defs>
</svg>
