<svg width="366" height="702" viewBox="0 0 366 702" fill="none" xmlns="http://www.w3.org/2000/svg">
<g filter="url(#filter0_d)">
<path d="M315.593 552.307C287.664 623.092 252.971 684.468 215.005 695.22C177.257 705.972 136.237 666.548 101.762 616.372C67.5052 566.643 39.7944 506.163 22.9933 431.794C6.19226 356.978 0.0827942 268.273 10.9926 184.944C21.6841 102.064 49.395 25.007 84.088 8.43083C118.781 -7.6973 160.456 36.6551 196.677 66.2233C233.115 95.3435 264.099 109.68 294.647 149.552C325.194 188.976 355.305 254.385 359.887 327.409C364.469 400.434 343.522 481.074 315.593 552.307Z" fill="#171717"/>
</g>
<defs>
<filter id="filter0_d" x="0.517929" y="0" width="365" height="702" filterUnits="userSpaceOnUse" color-interpolation-filters="sRGB">
<feFlood flood-opacity="0" result="BackgroundImageFix"/>
<feColorMatrix in="SourceAlpha" type="matrix" values="0 0 0 0 0 0 0 0 0 0 0 0 0 0 0 0 0 0 127 0"/>
<feOffset/>
<feGaussianBlur stdDeviation="2.5"/>
<feColorMatrix type="matrix" values="0 0 0 0 0 0 0 0 0 0 0 0 0 0 0 0 0 0 0.25 0"/>
<feBlend mode="normal" in2="BackgroundImageFix" result="effect1_dropShadow"/>
<feBlend mode="normal" in="SourceGraphic" in2="effect1_dropShadow" result="shape"/>
</filter>
</defs>
</svg>
