<svg width="30" height="30" viewBox="0 0 30 30" fill="none" xmlns="http://www.w3.org/2000/svg">
<path d="M15 0.46875C6.9692 0.46875 0.46875 6.96791 0.46875 15C0.46875 23.0308 6.96791 29.5312 15 29.5312C17.8215 29.5312 20.5864 28.7027 22.9341 27.1744C23.6375 26.7165 23.791 25.7513 23.2594 25.1019L22.6631 24.3734C22.2136 23.8243 21.4221 23.6897 20.8248 24.0728C19.0969 25.1811 17.0692 25.7812 15 25.7812C9.05519 25.7812 4.21875 20.9448 4.21875 15C4.21875 9.05519 9.05519 4.21875 15 4.21875C20.8675 4.21875 25.7812 7.59486 25.7812 13.5938C25.7812 15.8664 24.5453 18.2661 22.3729 18.4976C21.3563 18.471 21.382 17.7443 21.5832 16.7384L22.9563 9.64213C23.1242 8.77441 22.4595 7.96875 21.5757 7.96875H18.9401C18.7455 7.96875 18.5577 8.04038 18.4125 8.16999C18.2674 8.2996 18.175 8.47811 18.153 8.67146L18.1525 8.67686C17.2913 7.62797 15.7825 7.40098 14.6385 7.40098C10.2686 7.40098 6.5625 11.0475 6.5625 16.2756C6.5625 20.1019 8.71787 22.4789 12.1875 22.4789C13.7686 22.4789 15.549 21.5627 16.5815 20.2328C17.1394 22.2311 18.9612 22.2311 20.7247 22.2311C27.106 22.2311 29.5312 18.035 29.5312 13.5938C29.5312 5.60467 23.0873 0.46875 15 0.46875ZM13.7297 18.3064C12.426 18.3064 11.6162 17.391 11.6162 15.9175C11.6162 13.2812 13.4197 11.6561 15.0516 11.6561C16.3577 11.6561 17.1376 12.5491 17.1376 14.0449C17.1376 16.6852 15.1527 18.3064 13.7297 18.3064Z" fill="#E5E5E5"/>
</svg>
