<svg width="30" height="30" viewBox="0 0 30 30" fill="none" xmlns="http://www.w3.org/2000/svg">
<path fill-rule="evenodd" clip-rule="evenodd" d="M15 29.0625C22.7666 29.0625 29.0625 22.7666 29.0625 15C29.0625 7.2335 22.7666 0.9375 15 0.9375C7.2335 0.9375 0.9375 7.2335 0.9375 15C0.9375 22.7666 7.2335 29.0625 15 29.0625ZM19.3836 25.0236C23.0044 23.438 25.6011 19.948 25.9072 15.8203C24.6214 16.5216 23 17.0966 21.1517 17.4969C20.9191 20.4181 20.2855 23.0267 19.3836 25.0236ZM10.6164 4.97636C7.57383 6.30884 5.2543 8.98603 4.4095 12.2563C4.77141 12.5997 5.3877 13.022 6.3255 13.4388C7.0268 13.7505 7.84458 14.0309 8.75839 14.2652C8.84145 10.6341 9.5367 7.36702 10.6164 4.97636ZM12.0322 17.9856C12.277 20.2617 12.7894 22.2191 13.4362 23.6745C13.8956 24.7083 14.3619 25.3513 14.7216 25.6936C14.8495 25.8155 14.942 25.8803 15 25.9137C15.058 25.8803 15.1505 25.8155 15.2784 25.6936C15.6381 25.3513 16.1044 24.7083 16.5638 23.6745C17.2106 22.2191 17.723 20.2617 17.9678 17.9856C17.0111 18.0769 16.0181 18.125 15 18.125C13.9819 18.125 12.9889 18.0769 12.0322 17.9856ZM8.84822 17.4969C9.08087 20.4181 9.71452 23.0267 10.6164 25.0236C6.99563 23.438 4.39883 19.9478 4.0928 15.8203C5.37861 16.5216 7.00001 17.0966 8.84822 17.4969ZM18.1245 14.8275C17.1391 14.9389 16.0927 15 15 15C13.9075 15 12.8609 14.9389 11.8755 14.8275C11.8961 11.3501 12.5358 8.35162 13.4362 6.3255C13.8956 5.29177 14.3619 4.64869 14.7216 4.30633C14.8495 4.18456 14.942 4.11967 15 4.08619C15.058 4.11967 15.1505 4.18456 15.2784 4.30633C15.6381 4.64869 16.1044 5.29177 16.5638 6.3255C17.4642 8.35162 18.1039 11.3501 18.1245 14.8275ZM21.2416 14.2652C21.1586 10.6341 20.4633 7.36702 19.3836 4.97636C22.4263 6.30884 24.7458 8.98605 25.5905 12.2563C25.2286 12.5997 24.6123 13.022 23.6745 13.4388C22.9733 13.7505 22.1555 14.0309 21.2416 14.2652Z" fill="white"/>
</svg>
