<svg width="28" height="28" viewBox="0 0 28 28" fill="none" xmlns="http://www.w3.org/2000/svg">
<g clip-path="url(#clip0)">
<path d="M14.0062 6.84438C10.0489 6.84438 6.85689 10.0364 6.85689 13.9937C6.85689 17.951 10.0489 21.143 14.0062 21.143C17.9636 21.143 21.1556 17.951 21.1556 13.9937C21.1556 10.0364 17.9636 6.84438 14.0062 6.84438ZM14.0062 18.6417C11.4489 18.6417 9.35822 16.5573 9.35822 13.9937C9.35822 11.4302 11.4427 9.34571 14.0062 9.34571C16.5698 9.34571 18.6542 11.4302 18.6542 13.9937C18.6542 16.5573 16.5636 18.6417 14.0062 18.6417ZM23.1156 6.55194C23.1156 7.47905 22.3689 8.21949 21.448 8.21949C20.5209 8.21949 19.7804 7.47282 19.7804 6.55194C19.7804 5.63105 20.5271 4.88438 21.448 4.88438C22.3689 4.88438 23.1156 5.63105 23.1156 6.55194ZM27.8507 8.24438C27.7449 6.0106 27.2347 4.03194 25.5982 2.40171C23.968 0.771492 21.9893 0.26127 19.7556 0.14927C17.4533 0.0186029 10.5529 0.0186029 8.25067 0.14927C6.02311 0.255047 4.04444 0.765269 2.408 2.39549C0.771556 4.02571 0.267556 6.00438 0.155556 8.23816C0.0248895 10.5404 0.0248895 17.4408 0.155556 19.743C0.261334 21.9768 0.771556 23.9555 2.408 25.5857C4.04444 27.2159 6.01689 27.7262 8.25067 27.8382C10.5529 27.9688 17.4533 27.9688 19.7556 27.8382C21.9893 27.7324 23.968 27.2222 25.5982 25.5857C27.2284 23.9555 27.7387 21.9768 27.8507 19.743C27.9813 17.4408 27.9813 10.5466 27.8507 8.24438ZM24.8764 22.2133C24.3911 23.4328 23.4516 24.3724 22.2258 24.8639C20.3902 25.5919 16.0347 25.4239 14.0062 25.4239C11.9778 25.4239 7.616 25.5857 5.78667 24.8639C4.56711 24.3786 3.62756 23.439 3.136 22.2133C2.408 20.3777 2.576 16.0222 2.576 13.9937C2.576 11.9653 2.41422 7.60349 3.136 5.77416C3.62133 4.5546 4.56089 3.61505 5.78667 3.12349C7.62222 2.39549 11.9778 2.56349 14.0062 2.56349C16.0347 2.56349 20.3964 2.40171 22.2258 3.12349C23.4453 3.60882 24.3849 4.54838 24.8764 5.77416C25.6044 7.60971 25.4364 11.9653 25.4364 13.9937C25.4364 16.0222 25.6044 20.3839 24.8764 22.2133Z" fill="#E5E5E5"/>
</g>
<defs>
<clipPath id="clip0">
<rect width="28" height="27.9378" fill="white"/>
</clipPath>
</defs>
</svg>
