<svg width="30" height="26" viewBox="0 0 30 26" fill="none" xmlns="http://www.w3.org/2000/svg">
<path d="M26.9162 6.8892C26.9353 7.15568 26.9353 7.42223 26.9353 7.68871C26.9353 15.8168 20.7488 25.1823 9.44162 25.1823C5.95811 25.1823 2.72209 24.1734 0 22.4222C0.494941 22.4793 0.970781 22.4983 1.48477 22.4983C4.35908 22.4983 7.00506 21.5276 9.11801 19.8715C6.41496 19.8143 4.14973 18.044 3.36926 15.6075C3.75 15.6646 4.13068 15.7026 4.53047 15.7026C5.08248 15.7026 5.63455 15.6265 6.14848 15.4933C3.33123 14.9222 1.21822 12.4476 1.21822 9.459V9.38289C2.03672 9.83975 2.98857 10.1253 3.99738 10.1633C2.34129 9.05922 1.25631 7.17473 1.25631 5.04273C1.25631 3.90062 1.56082 2.85367 2.09385 1.93996C5.12051 5.67092 9.67002 8.10742 14.7715 8.37396C14.6763 7.91711 14.6192 7.44127 14.6192 6.96537C14.6192 3.57701 17.3603 0.816895 20.7677 0.816895C22.538 0.816895 24.1369 1.55928 25.2601 2.75852C26.6496 2.49203 27.9821 1.97805 29.1623 1.27375C28.7054 2.70145 27.7346 3.90068 26.4593 4.66205C27.6966 4.52887 28.8959 4.18615 29.9999 3.71031C29.1625 4.92853 28.1154 6.01352 26.9162 6.8892Z" fill="#E5E5E5"/>
</svg>
