<svg width="30" height="21" viewBox="0 0 30 21" fill="none" xmlns="http://www.w3.org/2000/svg">
<path d="M29.2335 3.34376C28.8919 2.06083 27.8852 1.05044 26.607 0.707548C24.2902 0.0844727 15 0.0844727 15 0.0844727C15 0.0844727 5.70988 0.0844727 3.39301 0.707548C2.11482 1.05049 1.10813 2.06083 0.766452 3.34376C0.14566 5.66915 0.14566 10.5208 0.14566 10.5208C0.14566 10.5208 0.14566 15.3725 0.766452 17.6979C1.10813 18.9809 2.11482 19.9492 3.39301 20.292C5.70988 20.9151 15 20.9151 15 20.9151C15 20.9151 24.2901 20.9151 26.607 20.292C27.8852 19.9492 28.8919 18.9809 29.2335 17.6979C29.8543 15.3725 29.8543 10.5208 29.8543 10.5208C29.8543 10.5208 29.8543 5.66915 29.2335 3.34376ZM11.9616 14.9258V6.11587L19.7263 10.521L11.9616 14.9258Z" fill="#E5E5E5"/>
</svg>
