<svg width="1206" height="824" viewBox="0 0 1206 824" fill="none" xmlns="http://www.w3.org/2000/svg">
<path d="M736.329 683.22C761.805 626.645 756.987 591.175 721.877 576.811C669.21 555.264 543.98 546.645 491.634 499.905C439.289 453.165 279.684 489.298 252.387 569.519C225.091 649.739 175.944 773.385 435.101 773.385C607.874 773.385 708.281 743.33 736.328 683.22H736.329Z" fill="#FFFA72"/>
<path d="M1160.57 571.517C1231.91 413.108 1218.42 313.794 1120.11 273.573C972.641 213.242 621.996 189.11 475.426 58.236C328.862 -72.6354 -118.033 28.5375 -194.463 253.155C-270.893 477.772 -408.504 823.98 317.134 823.98C800.898 823.98 1082.04 739.827 1160.57 571.517H1160.57Z" fill="#10161F"/>
<path d="M1125.22 580.826C1192.73 430.903 1179.96 336.908 1086.92 298.842C947.354 241.743 615.493 218.904 476.776 95.0413C338.063 -28.8192 -84.8911 66.9338 -157.226 279.518C-229.562 492.102 -359.801 819.763 326.964 819.763C784.812 819.763 1050.89 740.119 1125.21 580.826H1125.22Z" fill="#0E1B2E"/>
<path d="M1089.86 590.134C1153.56 448.698 1141.51 360.024 1053.74 324.112C922.068 270.245 608.992 248.699 478.127 131.847C347.266 14.9976 -51.748 105.331 -119.989 305.882C-188.23 506.433 -311.097 815.547 336.795 815.547C768.727 815.547 1019.74 740.411 1089.86 590.134H1089.86Z" fill="#0D203D"/>
<path d="M1054.51 599.443C1114.38 466.492 1103.06 383.139 1020.55 349.382C896.783 298.747 602.491 278.493 479.477 168.653C356.468 58.8142 -18.6049 143.727 -82.7512 332.245C-146.898 520.763 -262.393 811.331 346.625 811.331C752.642 811.331 988.598 740.703 1054.51 599.443H1054.51Z" fill="#0B254B"/>
<path d="M1019.16 608.751C1075.21 484.287 1064.61 406.254 987.364 374.652C871.497 327.249 595.99 308.288 480.828 205.459C365.67 102.631 14.5383 182.124 -45.5136 358.609C-105.566 535.094 -213.689 807.115 356.456 807.115C736.556 807.115 957.452 740.995 1019.15 608.751H1019.16Z" fill="#0A2A5A"/>
<path d="M983.803 618.06C1036.03 502.082 1026.15 429.369 954.178 399.922C846.211 355.751 589.488 338.083 482.179 242.264C374.873 146.448 47.6814 220.521 -8.27612 384.973C-64.2335 549.424 -164.985 802.898 366.286 802.898C720.471 802.898 926.305 741.287 983.801 618.06H983.803Z" fill="#092F68"/>
<path d="M948.449 627.368C996.855 519.876 987.701 452.484 920.992 425.192C820.925 384.253 582.987 367.877 483.529 279.07C384.075 190.265 80.8246 258.918 28.9616 411.336C-22.9014 563.755 -116.281 798.682 376.117 798.682C704.386 798.682 895.159 741.579 948.448 627.368H948.449Z" fill="#073377"/>
<path d="M913.096 636.677C957.68 537.671 949.249 475.599 887.806 450.461C795.639 412.754 576.486 397.672 484.88 315.876C393.278 234.081 113.968 297.314 66.1996 437.7C18.431 578.086 -67.576 794.466 385.948 794.466C688.3 794.466 864.013 741.871 913.094 636.677H913.096Z" fill="#063885"/>
<path d="M877.742 645.985C918.505 555.466 910.797 498.715 854.62 475.732C770.354 441.257 569.985 427.467 486.231 352.682C402.48 277.898 147.111 335.711 103.437 464.064C59.7626 592.416 -18.8724 790.25 395.778 790.25C672.215 790.25 832.866 742.163 877.741 645.985H877.742Z" fill="#043D94"/>
<path d="M842.389 655.294C879.33 573.261 872.344 521.83 821.434 501.001C745.068 469.758 563.483 457.261 487.581 389.487C411.682 321.715 180.254 374.108 140.674 490.427C101.095 606.747 29.8318 786.033 405.609 786.033C656.13 786.033 801.72 742.454 842.387 655.294H842.389Z" fill="#0342A2"/>
<path d="M807.035 664.603C840.155 591.056 833.892 544.945 788.249 526.271C719.782 498.26 556.982 487.056 488.932 426.293C420.885 365.532 213.397 412.505 177.912 516.791C142.427 621.078 78.5359 781.817 415.44 781.817C640.044 781.817 770.574 742.747 807.034 664.603H807.035Z" fill="#0147B0"/>
<path d="M771.682 673.911C800.98 608.85 795.44 568.06 755.063 551.541C694.496 526.762 550.481 516.851 490.283 463.099C430.087 409.348 246.541 450.901 215.15 543.155C183.759 635.408 127.24 777.601 425.27 777.601C623.959 777.601 739.427 743.038 771.681 673.911H771.682Z" fill="#004CBF"/>
</svg>
