<svg width="1153" height="824" viewBox="0 0 1153 824" fill="none" xmlns="http://www.w3.org/2000/svg">
<path d="M469.672 140.78C444.195 197.355 449.013 232.825 484.123 247.189C536.79 268.736 662.02 277.355 714.366 324.095C766.711 370.835 926.316 334.702 953.613 254.481C980.909 174.261 1030.06 50.6152 770.899 50.6152C598.126 50.6152 497.719 80.6697 469.672 140.78H469.672Z" fill="#FFFA72"/>
<path d="M45.4287 252.483C-25.9067 410.892 -12.4164 510.206 85.8923 550.427C233.359 610.758 584.004 634.89 730.574 765.764C877.138 896.635 1324.03 795.462 1400.46 570.845C1476.89 346.228 1614.5 0.0200195 888.866 0.0200195C405.102 0.0200195 123.962 84.1725 45.4311 252.483H45.4287Z" fill="#10161F"/>
<path d="M80.7832 243.174C13.2693 393.097 26.0369 487.091 119.079 525.157C258.646 582.256 590.507 605.096 729.224 728.958C867.937 852.819 1290.89 757.066 1363.23 544.482C1435.56 331.898 1565.8 4.23633 879.036 4.23633C421.188 4.23633 155.109 83.8807 80.7855 243.174H80.7832Z" fill="#0E1B2E"/>
<path d="M116.137 233.866C52.4443 375.302 64.4892 463.976 152.265 499.888C283.932 553.755 597.008 575.301 727.873 692.153C858.734 809.002 1257.75 718.669 1325.99 518.118C1394.23 317.567 1517.1 8.45264 869.205 8.45264C437.273 8.45264 186.255 83.5888 116.139 233.866H116.137Z" fill="#0D203D"/>
<path d="M151.49 224.557C91.6194 357.508 102.942 440.861 185.451 474.618C309.217 525.253 603.509 545.506 726.523 655.347C849.532 765.186 1224.6 680.273 1288.75 491.755C1352.9 303.237 1468.39 12.6689 859.375 12.6689C453.358 12.6689 217.402 83.2969 151.492 224.557H151.49Z" fill="#0B254B"/>
<path d="M186.844 215.249C130.794 339.713 141.394 417.746 218.636 449.348C334.503 496.751 610.01 515.712 725.172 618.541C840.33 721.369 1191.46 641.876 1251.51 465.391C1311.57 288.906 1419.69 16.8853 849.544 16.8853C469.444 16.8853 248.548 83.0051 186.846 215.249H186.844Z" fill="#0A2A5A"/>
<path d="M222.197 205.94C169.969 321.918 179.846 394.631 251.822 424.078C359.789 468.249 616.512 485.917 723.821 581.736C831.127 677.552 1158.32 603.479 1214.28 439.027C1270.23 274.576 1370.98 21.1016 839.714 21.1016C485.529 21.1016 279.695 82.7132 222.199 205.94H222.197Z" fill="#092F68"/>
<path d="M257.551 196.632C209.145 304.124 218.299 371.516 285.008 398.808C385.075 439.747 623.013 456.123 722.471 544.93C821.925 633.735 1125.18 565.082 1177.04 412.664C1228.9 260.245 1322.28 25.3179 829.883 25.3179C501.614 25.3179 310.841 82.4213 257.552 196.632H257.551Z" fill="#073377"/>
<path d="M292.904 187.323C248.32 286.329 256.751 348.401 318.194 373.539C410.361 411.246 629.514 426.328 721.12 508.124C812.722 589.919 1092.03 526.686 1139.8 386.3C1187.57 245.914 1273.58 29.5342 820.052 29.5342C517.7 29.5342 341.987 82.1295 292.906 187.323H292.904Z" fill="#063885"/>
<path d="M328.258 178.015C287.495 268.534 295.203 325.285 351.38 348.269C435.646 382.744 636.015 396.533 719.769 471.318C803.52 546.102 1058.89 488.289 1102.56 359.936C1146.24 231.584 1224.87 33.7505 810.222 33.7505C533.785 33.7505 373.134 81.8376 328.259 178.015H328.258Z" fill="#043D94"/>
<path d="M363.611 168.706C326.67 250.739 333.656 302.17 384.566 322.999C460.932 354.241 642.517 366.738 718.418 434.512C794.318 502.285 1025.75 449.892 1065.33 333.572C1104.91 217.253 1176.17 37.9663 800.391 37.9663C549.87 37.9663 404.28 81.5453 363.612 168.706H363.611Z" fill="#0342A2"/>
<path d="M398.965 159.397C365.845 232.944 372.108 279.055 417.751 297.729C486.218 325.74 649.018 336.944 717.068 397.707C785.115 458.468 992.603 411.495 1028.09 307.209C1063.57 202.922 1127.46 42.1826 790.56 42.1826C565.956 42.1826 435.426 81.2534 398.966 159.397H398.965Z" fill="#0147B0"/>
<path d="M450.479 141.69C421.181 206.751 426.722 247.541 467.098 264.06C527.665 288.839 671.68 298.75 731.878 352.502C792.074 406.253 975.621 364.7 1007.01 272.446C1038.4 180.193 1094.92 38 796.891 38C598.202 38 482.734 72.5626 450.48 141.69H450.479Z" fill="#004CBF"/>
</svg>
