<svg width="1591" height="1452" viewBox="0 0 1591 1452" fill="none" xmlns="http://www.w3.org/2000/svg">
<path d="M846.307 64.003C800.4 178.937 809.081 250.996 872.347 280.178C967.248 323.952 1192.9 341.461 1287.23 436.417C1381.55 531.371 1669.14 457.965 1718.33 294.993C1767.51 132.021 1856.07 -119.172 1389.09 -119.172C1077.77 -119.172 896.846 -58.1152 846.309 64.003H846.307Z" fill="#FFFA72"/>
<path d="M81.8603 290.933C-46.6799 612.749 -22.3716 814.512 154.772 896.223C420.494 1018.79 1052.33 1067.81 1316.43 1333.69C1580.53 1599.56 2385.79 1394.03 2523.51 937.704C2661.23 481.382 2909.2 -221.959 1601.66 -221.959C729.959 -221.959 223.37 -50.9984 81.8647 290.933H81.8603Z" fill="#10161F"/>
<path d="M145.564 272.022C23.9102 576.598 46.9162 767.553 214.57 844.886C466.057 960.886 1064.04 1007.28 1314 1258.92C1563.95 1510.55 2326.07 1316.02 2456.41 884.145C2586.76 452.269 2821.44 -213.393 1583.95 -213.393C758.944 -213.393 279.493 -51.5914 145.568 272.022H145.564Z" fill="#0E1B2E"/>
<path d="M209.268 253.111C94.5001 540.447 116.204 720.593 274.368 793.549C511.62 902.982 1075.76 946.755 1311.56 1184.15C1547.36 1421.53 2266.35 1238.02 2389.32 830.585C2512.28 423.155 2733.68 -204.828 1566.23 -204.828C787.928 -204.828 335.616 -52.1844 209.272 253.111H209.268Z" fill="#0D203D"/>
<path d="M272.972 234.2C165.09 504.296 185.492 673.633 334.166 742.212C557.183 845.079 1087.47 886.226 1309.13 1109.37C1530.78 1332.52 2206.63 1160.01 2322.22 777.026C2437.8 394.042 2645.92 -196.262 1548.52 -196.262C816.912 -196.262 391.739 -52.7776 272.976 234.2H272.972Z" fill="#0B254B"/>
<path d="M336.676 215.289C235.68 468.145 254.779 626.673 393.964 690.875C602.746 787.176 1099.19 825.696 1306.7 1034.6C1514.2 1243.5 2146.91 1082.01 2255.12 723.467C2363.33 364.928 2558.15 -187.697 1530.8 -187.697C845.897 -187.697 447.862 -53.3706 336.679 215.289H336.676Z" fill="#0A2A5A"/>
<path d="M400.38 196.379C306.27 431.994 324.067 579.714 453.762 639.537C648.308 729.273 1110.9 765.167 1304.26 959.827C1497.62 1154.48 2087.19 1004 2188.02 669.907C2288.85 335.815 2470.39 -179.131 1513.09 -179.131C874.881 -179.131 503.985 -53.9637 400.383 196.379H400.38Z" fill="#092F68"/>
<path d="M464.084 177.468C376.86 395.843 393.355 532.754 513.56 588.201C693.871 671.37 1122.61 704.637 1301.83 885.054C1481.04 1065.47 2027.47 925.995 2120.92 616.348C2214.37 306.701 2382.63 -170.565 1495.38 -170.565C903.865 -170.565 560.108 -54.5567 464.087 177.468H464.084Z" fill="#073377"/>
<path d="M527.788 158.557C447.45 359.692 462.643 485.794 573.358 536.863C739.434 613.467 1134.33 644.108 1299.39 810.281C1464.45 976.451 1967.75 847.99 2053.82 562.789C2139.9 277.588 2294.87 -162 1477.66 -162C932.85 -162 616.231 -55.1498 527.79 158.557H527.788Z" fill="#063885"/>
<path d="M591.492 139.646C518.04 323.541 531.931 438.835 633.156 485.526C784.997 555.564 1146.04 583.578 1296.96 735.508C1447.87 887.435 1908.03 769.985 1986.72 509.23C2065.42 248.474 2207.11 -153.434 1459.95 -153.434C961.834 -153.434 672.354 -55.7429 591.494 139.646H591.492Z" fill="#043D94"/>
<path d="M655.196 120.735C588.63 287.39 601.218 391.875 692.953 434.189C830.56 497.661 1157.76 523.049 1294.53 660.735C1431.29 798.419 1848.3 691.98 1919.62 455.67C1990.94 219.361 2119.35 -144.869 1442.23 -144.869C990.818 -144.869 728.477 -56.336 655.198 120.735H655.196Z" fill="#0342A2"/>
<path d="M718.9 101.825C659.22 251.239 670.506 344.915 752.751 382.852C876.123 439.758 1169.47 462.52 1292.09 585.963C1414.71 709.403 1788.58 613.975 1852.52 402.111C1916.47 190.248 2031.59 -136.303 1424.52 -136.303C1019.8 -136.303 784.6 -56.929 718.902 101.825H718.9Z" fill="#0147B0"/>
<path d="M782.603 82.9138C729.81 215.088 739.794 297.955 812.549 331.515C921.685 381.855 1181.19 401.99 1289.66 511.19C1398.13 620.387 1728.86 535.97 1785.43 348.552C1841.99 161.134 1943.83 -127.738 1406.81 -127.738C1048.79 -127.738 840.723 -57.5221 782.605 82.9138H782.603Z" fill="#004CBF"/>
</svg>
