<?xml version="1.0" encoding="utf-8"?>
<!-- Generator: Adobe Illustrator 24.0.1, SVG Export Plug-In . SVG Version: 6.00 Build 0)  -->
<svg version="1.1" id="Layer_1" xmlns="http://www.w3.org/2000/svg" xmlns:xlink="http://www.w3.org/1999/xlink" x="0px" y="0px"
	 viewBox="0 0 1200 580" style="enable-background:new 0 0 1200 580;" xml:space="preserve">
<style type="text/css">
	.st0{fill:#FFFA72;}
	.st1{fill:#10161F;}
	.st2{fill:#0E1B2E;}
	.st3{fill:#0D203D;}
	.st4{fill:#0B254B;}
	.st5{fill:#0A2A5A;}
	.st6{fill:#092F68;}
	.st7{fill:#073377;}
	.st8{fill:#063885;}
	.st9{fill:#043D94;}
	.st10{fill:#0342A2;}
	.st11{fill:#0147B0;}
	.st12{fill:#004CBF;}
</style>
<path class="st0" d="M707.7,52.4c-26.4,56.9-21.4,92.6,15,107c54.7,21.7,184.7,30.3,239,77.3c54.3,47,220,10.7,248.4-70
	s79.4-205-189.7-205C841.2-38.3,736.9-8,707.7,52.4L707.7,52.4z"/>
<path class="st1" d="M318.6,164.7c17.9,159.3,89.6,259.2,215,299.7c188.1,60.7,566.2,85,794.3,216.6s633.4,29.9,582.3-196
	S1800.9-89.2,1047.6-89.2C545.3-89.2,302.3-4.6,318.6,164.7L318.6,164.7z"/>
<path class="st2" d="M347.7,155.4c8.4,150.7,70.9,245.3,187.4,283.6c174.9,57.4,531.3,80.4,740.2,205s597.9,28.3,561.6-185.6
	s-72.6-543.3-785.6-543.3C576-84.9,341.5-4.9,347.7,155.4L347.7,155.4z"/>
<path class="st3" d="M377.6,146c0.1,142.3,54.3,231.4,162.3,267.6c162,54.1,497.2,75.9,687.7,193.4
	c190.7,117.6,562.6,26.7,539.3-175c-23.3-201.7-40.4-512.7-713.2-512.7C605.3-80.8,380-5.2,377.6,146L377.6,146z"/>
<path class="st4" d="M408.3,136.7c-6.7,133.7,39.7,217.6,139.4,251.6c149.6,50.9,463.6,71.3,637,181.7
	c173.4,110.4,527.4,25,515.6-164.6c-12-189.6-13.1-481.9-645.4-481.9C633.5-76.5,417.9-5.5,408.3,136.7L408.3,136.7z"/>
<path class="st5" d="M439.5,127.2c-12.6,125.1,27,203.7,118.7,235.4c137.7,47.7,430.6,66.7,587.9,170.1
	c157.1,103.4,492.7,23.4,490.4-154c-2.3-177.4,10.4-451-581.6-451C660.3-72.2,455.2-5.8,439.5,127.2L439.5,127.2z"/>
<path class="st6" d="M471.3,118c-17.4,116.7,15.9,189.7,100,219.4c126.1,44.4,398.3,62.1,540,158.6c141.9,96.4,458,21.9,464-143.6
	c6-165.4,30.1-420.3-521.4-420.3C686-68,491.9-6,471.3,118L471.3,118z"/>
<path class="st7" d="M503.6,108.5c-21.3,108.1,6.4,175.9,83,203.3c114.9,41.1,366.4,57.7,493.6,147s423.6,20.3,436.3-133
	c12.7-153.3,46.4-389.6-464.7-389.6C710.9-63.8,528.2-6.3,503.6,108.5L503.6,108.5z"/>
<path class="st8" d="M536.6,99.2c-24.1,99.6-1.6,162,67.7,187.3c104.1,37.9,335,53.1,448.3,135.4s389.3,18.7,407.6-122.6
	s59.3-358.9-411.6-358.9C734.7-59.5,564-6.6,536.6,99.2L536.6,99.2z"/>
<path class="st9" d="M569.9,89.8c-26.3,91-8.1,148.1,54.1,171.3c93.6,34.7,304,48.6,404.3,123.7c100.1,75.3,355.2,17,377.7-112
	c22.6-129,69.1-328.2-361.3-328.2C757.7-55.3,599.5-6.9,569.9,89.8L569.9,89.8z"/>
<path class="st10" d="M603.7,80.5c-27.4,82.6-13.4,134.3,42.1,155.1c83.4,31.4,273.6,44,361.4,112.1
	c87.7,68.1,321.2,15.4,346.9-101.6c25.6-117,75.9-297.3-314.3-297.3C779.7-51,634.3-7.2,603.7,80.5L603.7,80.5z"/>
<path class="st11" d="M638,71.1c-27.9,74-17.3,120.3,31.7,139.1c73.6,28.1,243.6,39.4,319.6,100.6s287.3,13.9,315-91
	s79.7-266.6-270.2-266.6C801-46.8,668.9-7.5,638,71.1L638,71.1z"/>
<path class="st12" d="M672.6,61.8c-27.6,65.4-20,106.4,22.6,123.1c64,24.9,213.9,34.9,278.7,89c64.9,54,253.6,12.3,282.2-80.6
	c28.6-92.9,81.1-236-228.3-236C821.5-42.6,703-7.8,672.6,61.8L672.6,61.8z"/>
</svg>
