<?xml version="1.0" encoding="UTF-8" standalone="no"?>
<!DOCTYPE svg PUBLIC "-//W3C//DTD SVG 1.1//EN" "http://www.w3.org/Graphics/SVG/1.1/DTD/svg11.dtd">
<svg width="100%" height="100%" viewBox="0 0 5000 1411" version="1.1" xmlns="http://www.w3.org/2000/svg" xmlns:xlink="http://www.w3.org/1999/xlink" xml:space="preserve" xmlns:serif="http://www.serif.com/" style="fill-rule:evenodd;clip-rule:evenodd;stroke-linejoin:round;stroke-miterlimit:2;">
    <g transform="matrix(10.6383,-6.25778,-6.25778,-10.6383,3591.51,1369.32)">
        <path d="M-11.879,37.708L154.58,37.708C145.054,43.312 134.202,46.267 123.151,46.266L-26.429,46.267C-23.493,40.984 -17.923,37.707 -11.879,37.708" style="fill:rgb(35,0,144);fill-rule:nonzero;"/>
    </g>
    <g transform="matrix(10.6383,-6.25771,-6.25771,-10.6383,3337.7,1202.42)">
        <path d="M-10.527,32.743L136.349,32.743C126.823,38.347 115.972,41.302 104.92,41.302L-25.076,41.3C-22.139,36.018 -16.57,32.744 -10.527,32.743" style="fill:rgb(35,0,144);fill-rule:nonzero;"/>
    </g>
    <g transform="matrix(10.6383,6.2578,6.2578,-10.6383,817.361,-428.981)">
        <path d="M-10.326,-46.478L139.254,-46.478C150.306,-46.478 161.157,-43.523 170.682,-37.92L21.103,-37.92C10.051,-37.92 -0.8,-40.875 -10.326,-46.478" style="fill:rgb(51,1,214);fill-rule:nonzero;"/>
    </g>
    <g transform="matrix(10.6383,6.2578,6.2578,-10.6383,400.7,-428.981)">
        <path d="M-10.326,-46.478L139.254,-46.478C150.305,-46.478 161.157,-43.523 170.682,-37.92L21.103,-37.92C10.05,-37.92 -0.8,-40.875 -10.326,-46.478" style="fill:rgb(51,1,214);fill-rule:nonzero;"/>
    </g>
    <g transform="matrix(12.3423,0,0,12.3423,833.334,1410.15)">
        <path d="M0,-114.185L143.477,-29.787L194.115,0C194.115,-6.151 190.859,-11.843 185.559,-14.961L160.355,-29.787L31.429,-105.626C21.902,-111.23 11.052,-114.185 0,-114.185" style="fill:rgb(51,1,214);fill-rule:nonzero;"/>
    </g>
    <g transform="matrix(10.6383,-6.25777,-6.25777,-10.6383,3083.95,1035.51)">
        <path d="M-9.176,27.779L118.116,27.779C108.59,33.382 97.738,36.337 86.687,36.337L-23.725,36.337C-20.789,31.055 -15.22,27.779 -9.176,27.779" style="fill:rgb(35,0,144);fill-rule:nonzero;"/>
    </g>
</svg>
