<svg width="363" height="697" viewBox="0 0 363 697" fill="none" xmlns="http://www.w3.org/2000/svg">
<g clip-path="url(#clip0)" filter="url(#filter0_d)">
<path d="M301.045 544.831C272.816 603.204 245.443 651.22 211.867 675.229C178.506 698.766 138.943 697.354 103.229 664.401C67.5149 631.449 35.4366 566.015 18.7559 483.163C2.07513 400.312 1.00583 299.571 19.6113 227.076C38.2167 154.11 76.4968 109.389 113.494 69.3755C150.491 28.8912 185.991 -6.8857 215.289 10.0612C244.587 27.0082 267.47 96.6789 295.057 162.113C322.858 228.018 355.364 289.686 357.075 354.178C358.786 419.141 329.488 486.929 301.045 544.831Z" fill="#171717"/>
</g>
<defs>
<filter id="filter0_d" x="-1" y="-2" width="365" height="702" filterUnits="userSpaceOnUse" color-interpolation-filters="sRGB">
<feFlood flood-opacity="0" result="BackgroundImageFix"/>
<feColorMatrix in="SourceAlpha" type="matrix" values="0 0 0 0 0 0 0 0 0 0 0 0 0 0 0 0 0 0 127 0"/>
<feOffset/>
<feGaussianBlur stdDeviation="2.5"/>
<feColorMatrix type="matrix" values="0 0 0 0 0 0 0 0 0 0 0 0 0 0 0 0 0 0 0.25 0"/>
<feBlend mode="normal" in2="BackgroundImageFix" result="effect1_dropShadow"/>
<feBlend mode="normal" in="SourceGraphic" in2="effect1_dropShadow" result="shape"/>
</filter>
<clipPath id="clip0">
<rect width="692" height="355" fill="white" transform="translate(359 3) rotate(90)"/>
</clipPath>
</defs>
</svg>
