<svg width="363" height="702" viewBox="0 0 363 702" fill="none" xmlns="http://www.w3.org/2000/svg">
<g clip-path="url(#clip0)" filter="url(#filter0_d)">
<path d="M301.085 537.615C276.915 597.598 249.975 655.081 214.727 680.574C179.479 706.567 135.671 700.568 98.9117 663.579C62.1528 626.09 32.1918 558.109 17.0854 478.132C1.97906 398.654 1.72726 307.18 15.5748 223.704C29.4223 139.728 57.1173 63.7492 93.8762 29.259C130.635 -4.73131 176.206 3.26644 220.266 20.2616C264.327 37.2568 306.876 63.2494 331.55 120.233C355.972 177.717 362.518 265.192 354.965 340.671C347.16 415.649 325.507 478.132 301.085 537.615Z" fill="#171717"/>
</g>
<defs>
<filter id="filter0_d" x="2.28882e-05" y="0" width="365" height="702" filterUnits="userSpaceOnUse" color-interpolation-filters="sRGB">
<feFlood flood-opacity="0" result="BackgroundImageFix"/>
<feColorMatrix in="SourceAlpha" type="matrix" values="0 0 0 0 0 0 0 0 0 0 0 0 0 0 0 0 0 0 127 0"/>
<feOffset/>
<feGaussianBlur stdDeviation="2.5"/>
<feColorMatrix type="matrix" values="0 0 0 0 0 0 0 0 0 0 0 0 0 0 0 0 0 0 0.25 0"/>
<feBlend mode="normal" in2="BackgroundImageFix" result="effect1_dropShadow"/>
<feBlend mode="normal" in="SourceGraphic" in2="effect1_dropShadow" result="shape"/>
</filter>
<clipPath id="clip0">
<rect width="692" height="355" fill="white" transform="translate(360 5) rotate(90)"/>
</clipPath>
</defs>
</svg>
